HIERARCHY
ROOT hip
{
  OFFSET 0 0 0
  CHANNELS 6 Xposition Yposition Zposition Zrotation Yrotation Xrotation
  JOINT abdomen
  {
    OFFSET 0 20.6881 -0.73152
    CHANNELS 3 Zrotation Xrotation Yrotation
    JOINT chest
    {
      OFFSET 0 11.7043 -0.48768
      CHANNELS 3 Zrotation Xrotation Yrotation
      JOINT neck
      {
        OFFSET 0 22.1894 -2.19456
        CHANNELS 3 Zrotation Xrotation Yrotation
        JOINT head
        {
          OFFSET -0.24384 7.07133 1.2192
          CHANNELS 3 Zrotation Xrotation Yrotation
          JOINT leftEye
          {
            OFFSET 4.14528 8.04674 8.04672
            CHANNELS 3 Zrotation Xrotation Yrotation
            End Site
            {
              OFFSET 1 0 0
            }
          }
          JOINT rightEye
          {
            OFFSET -3.6576 8.04674 8.04672
            CHANNELS 3 Zrotation Xrotation Yrotation
            End Site
            {
              OFFSET 1 0 0
            }
          }
        }
      }
      JOINT rCollar
      {
        OFFSET -2.68224 19.2634 -4.8768
        CHANNELS 3 Zrotation Xrotation Yrotation
        JOINT rShldr
        {
          OFFSET -8.77824 -1.95073 1.46304
          CHANNELS 3 Zrotation Xrotation Yrotation
          JOINT rForeArm
          {
            OFFSET -28.1742 -1.7115 0.48768
            CHANNELS 3 Zrotation Xrotation Yrotation
            JOINT rHand
            {
              OFFSET -22.5879 0.773209 7.07136
              CHANNELS 3 Zrotation Xrotation Yrotation
              JOINT rThumb1
              {
                OFFSET -1.2192 -0.487915 3.41376
                CHANNELS 3 Zrotation Xrotation Yrotation
                JOINT rThumb2
                {
                  OFFSET -3.37035 -0.52449 3.41376
                  CHANNELS 3 Zrotation Xrotation Yrotation
                  End Site
                  {
                    OFFSET -1.78271 -1.18214 1.43049
                  }
                }
              }
              JOINT rIndex1
              {
                OFFSET -7.75947 0.938293 5.60832
                CHANNELS 3 Zrotation Xrotation Yrotation
                JOINT rIndex2
                {
                  OFFSET -2.54057 -0.884171 1.56538
                  CHANNELS 3 Zrotation Xrotation Yrotation
                  End Site
                  {
                    OFFSET -1.62519 -0.234802 1.16502
                  }
                }
              }
              JOINT rMid1
              {
                OFFSET -8.24714 1.18213 3.41376
                CHANNELS 3 Zrotation Xrotation Yrotation
                JOINT rMid2
                {
                  OFFSET -3.10165 -0.590103 1.0647
                  CHANNELS 3 Zrotation Xrotation Yrotation
                  End Site
                  {
                    OFFSET -2.48547 -0.328903 0.83742
                  }
                }
              }
              JOINT rRing1
              {
                OFFSET -8.82822 0.546677 1.51678
                CHANNELS 3 Zrotation Xrotation Yrotation
                JOINT rRing2
                {
                  OFFSET -2.60934 -0.819778 -0.0198488
                  CHANNELS 3 Zrotation Xrotation Yrotation
                  End Site
                  {
                    OFFSET -2.33842 -0.294052 0.168128
                  }
                }
              }
              JOINT rPinky1
              {
                OFFSET -8.27202 -0.0477905 -0.4584
                CHANNELS 3 Zrotation Xrotation Yrotation
                JOINT rPinky2
                {
                  OFFSET -1.82734 -0.647385 -0.700984
                  CHANNELS 3 Zrotation Xrotation Yrotation
                  End Site
                  {
                    OFFSET -1.69225 -0.51767 -0.607171
                  }
                }
              }
            }
          }
        }
      }
      JOINT lCollar
      {
        OFFSET 2.68224 19.2634 -4.8768
        CHANNELS 3 Zrotation Xrotation Yrotation
        JOINT lShldr
        {
          OFFSET 8.77824 -1.95073 1.46304
          CHANNELS 3 Zrotation Xrotation Yrotation
          JOINT lForeArm
          {
            OFFSET 28.1742 -1.7115 0.48768
            CHANNELS 3 Zrotation Xrotation Yrotation
            JOINT lHand
            {
              OFFSET 22.5879 0.773209 7.07136
              CHANNELS 3 Zrotation Xrotation Yrotation
              JOINT lThumb1
              {
                OFFSET 1.2192 -0.487915 3.41376
                CHANNELS 3 Zrotation Xrotation Yrotation
                JOINT lThumb2
                {
                  OFFSET 3.37035 -0.52449 3.41376
                  CHANNELS 3 Zrotation Xrotation Yrotation
                  End Site
                  {
                    OFFSET 1.78271 -1.18214 1.43049
                  }
                }
              }
              JOINT lIndex1
              {
                OFFSET 7.75947 0.938293 5.60832
                CHANNELS 3 Zrotation Xrotation Yrotation
                JOINT lIndex2
                {
                  OFFSET 2.54057 -0.884171 1.56538
                  CHANNELS 3 Zrotation Xrotation Yrotation
                  End Site
                  {
                    OFFSET 1.62519 -0.234802 1.16502
                  }
                }
              }
              JOINT lMid1
              {
                OFFSET 8.24714 1.18213 3.41376
                CHANNELS 3 Zrotation Xrotation Yrotation
                JOINT lMid2
                {
                  OFFSET 3.10165 -0.590103 1.0647
                  CHANNELS 3 Zrotation Xrotation Yrotation
                  End Site
                  {
                    OFFSET 2.48547 -0.328903 0.83742
                  }
                }
              }
              JOINT lRing1
              {
                OFFSET 8.82822 0.546677 1.51678
                CHANNELS 3 Zrotation Xrotation Yrotation
                JOINT lRing2
                {
                  OFFSET 2.60934 -0.819778 -0.0198488
                  CHANNELS 3 Zrotation Xrotation Yrotation
                  End Site
                  {
                    OFFSET 2.33842 -0.294052 0.168128
                  }
                }
              }
              JOINT lPinky1
              {
                OFFSET 8.27202 -0.0477905 -0.4584
                CHANNELS 3 Zrotation Xrotation Yrotation
                JOINT lPinky2
                {
                  OFFSET 1.82734 -0.647385 -0.700984
                  CHANNELS 3 Zrotation Xrotation Yrotation
                  End Site
                  {
                    OFFSET 1.69225 -0.51767 -0.607171
                  }
                }
              }
            }
          }
        }
      }
    }
  }
  JOINT rButtock
  {
    OFFSET -8.77824 4.35084 1.2192
    CHANNELS 3 Zrotation Xrotation Yrotation
    JOINT rThigh
    {
      OFFSET 0 -1.70687 -2.19456
      CHANNELS 3 Zrotation Xrotation Yrotation
      JOINT rShin
      {
        OFFSET 0 -36.8199 0.73152
        CHANNELS 3 Zrotation Xrotation Yrotation
        JOINT rFoot
        {
          OFFSET 0.73152 -45.1104 -5.12064
          CHANNELS 3 Zrotation Xrotation Yrotation
          End Site
          {
            OFFSET -1.1221 -3.69964 12.103
          }
        }
      }
    }
  }
  JOINT lButtock
  {
    OFFSET 8.77824 4.35084 1.2192
    CHANNELS 3 Zrotation Xrotation Yrotation
    JOINT lThigh
    {
      OFFSET 0 -1.70687 -2.19456
      CHANNELS 3 Zrotation Xrotation Yrotation
      JOINT lShin
      {
        OFFSET 0 -36.8199 0.73152
        CHANNELS 3 Zrotation Xrotation Yrotation
        JOINT lFoot
        {
          OFFSET -0.73152 -45.1104 -5.12064
          CHANNELS 3 Zrotation Xrotation Yrotation
          End Site
          {
            OFFSET 1.1221 -3.69964 12.103
          }
        }
      }
    }
  }
}
MOTION
Frames:	4
Frame Time:	0.00833333
1.39718 84.9173 -160.527 0.0 0.0 0.0 -0.140625 -0.000295016 -0.00400525 -0.0387669 -0.000394551 -0.00671563 -5.10056e-16 0.0 -3.88251e-17 -1.60581e-15 3.18055e-15 -1.21134e-16 -0.0 0.0 0.0 -0.0 0.0 0.0 -2.00124e-16 -1.16475e-18 1.49089e-16 -3.60414e-15 -2.29845e-16 3.97569e-16 -9.62118e-14 2.78299e-14 -9.54166e-15 -1.11027e-12 -3.44394e-14 -8.5875e-14 -2.61883e-12 -1.23751e-14 -2.00375e-13 -4.53587e-12 -2.22639e-14 -3.4509e-13 -2.61442e-12 -9.1441e-15 -2.13097e-13 7.73091 5.47488 0.417314 -2.61944e-12 -1.27222e-14 -1.94014e-13 2.90554 0.965183 0.102902 -2.61217e-12 -1.23246e-14 -1.98785e-13 10.2786 0.731801 0.0259123 -2.63251e-12 -9.54166e-15 -1.94014e-13 2.22167 -0.733487 -0.20892 -2.96853e-16 -1.55301e-18 -1.49089e-16 -7.5212e-15 3.47873e-16 -1.19271e-15 -9.77027e-14 -2.90226e-14 0.0 -1.11331e-12 2.98922e-14 -9.22361e-14 -2.62302e-12 -3.40393e-15 -2.00375e-13 -4.52195e-12 -6.36111e-15 -3.37139e-13 -2.62754e-12 -1.98785e-15 -1.90833e-13 -7.73091 5.47488 -0.417314 -2.62296e-12 -3.57812e-15 -2.00375e-13 -2.90554 0.965183 -0.102902 -2.62481e-12 -3.37934e-15 -1.96399e-13 -10.2786 0.731801 -0.0259123 -2.617e-12 -2.38542e-15 -2.06736e-13 -2.22167 -0.733487 0.20892 -2.03217e-16 0.0 -3.88251e-19 0.415452 -2.89234 -0.0363695 -0.00657579 -0.313961 -0.0578454 -0.521685 3.20536 0.125418 2.03217e-16 0.0 3.88251e-19 -0.629352 -3.43714 0.0497311 0.00497789 0.672914 0.0432305 0.523144 2.76331 -0.116511
1.01062 83.6606 -161.515 -3.7002 4.4774 1.5446 0.715162 -0.337434 0.405511 0.36218 -1.17448 0.112484 1.63513 -1.51188 0.183584 -2.37269 0.885359 -0.176742 -0.0 0.0 0.0 -0.0 0.0 0.0 3.01521e-15 -2.50971e-14 -6.89534e-15 21.5243 3.39389 -0.490163 -3.29713 -1.35211 5.29746 0.000534837 -0.518578 -0.0728709 -8.8225e-12 -2.1011e-10 2.90977e-10 -1.52822e-11 -3.63267e-10 5.03133e-10 -8.81565e-12 -2.10108e-10 2.90966e-10 7.73091 5.47488 0.417314 -8.82296e-12 -2.10111e-10 2.90981e-10 2.90554 0.965183 0.102902 -8.81574e-12 -2.10111e-10 2.90979e-10 10.2786 0.731801 0.0259123 -8.8322e-12 -2.10109e-10 2.90986e-10 2.22167 -0.733487 -0.20892 2.95863e-15 -2.50978e-14 -7.19469e-15 -21.3591 7.18024 1.16245 4.05575 -1.81134 -6.3684 -0.0105527 -2.2791 0.319391 9.26792e-11 -8.99783e-11 -2.3762e-10 1.61446e-10 -1.54692e-10 -4.10481e-10 9.26749e-11 -8.99784e-11 -2.37609e-10 -7.73091 5.47488 -0.417314 9.26792e-11 -8.99801e-11 -2.3762e-10 -2.90554 0.965183 -0.102902 9.26768e-11 -8.99796e-11 -2.37617e-10 -10.2786 0.731801 -0.0259123 9.26855e-11 -8.9978e-11 -2.37627e-10 -2.22167 -0.733487 0.20892 -2.03217e-16 0.0 -3.88251e-19 1.15309 -4.2458 -0.388265 0.00530643 6.5195 0.0681564 -1.09223 0.389791 -6.97629 2.03217e-16 0.0 3.88251e-19 0.853354 -5.18301 -1.05213 -0.00788139 7.48482 -0.0701386 0.814355 -0.434231 3.85461
0.997242 83.6609 -161.538 -3.7627 4.4823 1.5393 1.62252 -0.690631 0.850743 0.78221 -2.41368 0.24182 3.38229 -3.1221 0.373492 -4.87256 1.82845 -0.376447 -0.0 0.0 0.0 -0.0 0.0 0.0 6.41476e-15 -5.3274e-14 -1.38652e-14 44.3538 6.96656 -1.01372 -6.515 -2.74472 10.9118 -0.00034729 -1.07554 -0.151156 -2.15253e-11 -4.4005e-10 6.12099e-10 -3.72586e-11 -7.60835e-10 1.05837e-09 -2.15157e-11 -4.40049e-10 6.12088e-10 7.73091 5.47488 0.417314 -2.15256e-11 -4.40052e-10 6.12099e-10 2.90554 0.965183 0.102902 -2.15184e-11 -4.40053e-10 6.121e-10 10.2786 0.731801 0.0259123 -2.15308e-11 -4.40053e-10 6.12109e-10 2.22167 -0.733487 -0.20892 6.40106e-15 -5.32753e-14 -1.41665e-14 -44.2504 14.7794 2.44269 7.90804 -3.65136 -13.1205 0.00601179 -4.69083 0.659088 1.90179e-10 -1.99798e-10 -5.00409e-10 3.31324e-10 -3.43615e-10 -8.64476e-10 1.90175e-10 -1.99799e-10 -5.00396e-10 -7.73091 5.47488 -0.417314 1.90179e-10 -1.99801e-10 -5.00409e-10 -2.90554 0.965183 -0.102902 1.90176e-10 -1.998e-10 -5.00407e-10 -10.2786 0.731801 -0.0259123 1.90185e-10 -1.99798e-10 -5.00416e-10 -2.22167 -0.733487 0.20892 -2.03217e-16 0.0 -3.88251e-19 1.91568 -5.67354 -0.761637 -0.0155624 13.7428 0.20636 -2.44702 -2.49937 -14.4982 2.03217e-16 0.0 3.88251e-19 2.34743 -7.02314 -2.22783 0.00865353 14.6864 -0.195141 1.60366 -3.77887 8.07158
1.00427 83.6573 -161.574 -3.7387 4.5178 1.5729 2.44119 -1.01151 1.22471 1.17875 -3.52261 0.351475 4.93454 -4.53545 0.55229 -7.10167 2.65598 -0.530733 -0.0 0.0 0.0 -0.0 0.0 0.0 9.44587e-15 -7.52888e-14 -2.09842e-14 64.7494 10.1787 -1.49139 -9.15052 -3.91784 15.9262 -0.002354 -1.55572 -0.218684 -2.12298e-11 -6.30304e-10 8.73333e-10 -3.67749e-11 -1.08976e-09 1.51009e-09 -2.12181e-11 -6.30304e-10 8.73323e-10 7.73091 5.47488 0.417314 -2.123e-11 -6.30307e-10 8.73331e-10 2.90554 0.965183 0.102902 -2.12229e-11 -6.30309e-10 8.73334e-10 10.2786 0.731801 0.0259123 -2.12316e-11 -6.30309e-10 8.73345e-10 2.22167 -0.733487 -0.20892 9.46959e-15 -7.52904e-14 -2.12859e-14 -65.0062 21.5039 3.71921 10.98 -5.16602 -19.1765 0.0450308 -6.83644 0.964272 2.83284e-10 -2.69928e-10 -7.1246e-10 4.93381e-10 -4.64062e-10 -1.23077e-09 2.8328e-10 -2.69931e-10 -7.12445e-10 -7.73091 5.47488 -0.417314 2.83284e-10 -2.69933e-10 -7.1246e-10 -2.90554 0.965183 -0.102902 2.8328e-10 -2.69932e-10 -7.12459e-10 -10.2786 0.731801 -0.0259123 2.8329e-10 -2.69929e-10 -7.12467e-10 -2.22167 -0.733487 0.20892 -2.03217e-16 0.0 -3.88251e-19 2.57813 -6.95174 -1.09702 -0.0655697 20.1861 0.339702 -4.28545 -4.87833 -21.2596 2.03217e-16 0.0 3.88251e-19 3.61528 -8.66335 -3.28023 0.0518868 21.1083 -0.316302 2.72336 -6.68733 11.8782
